#N canvas 679 43 840 1002 10;
#X obj 247 456 output~;
#X floatatom 87 46 5 0 0 0 FUNDAMENTAL - -;
#X obj 273 417 *~;
#X obj 563 -14 adsr 1 100 200 50 300;
#X obj 563 -101 bng 30 250 50 0 empty empty empty 17 7 0 10 -4034 -1
-1;
#X obj 563 -39 tgl 15 0 empty empty empty 17 7 0 10 -262144 -1 -1 1
1;
#X floatatom 612 -39 5 0 0 0 - - -;
#X floatatom 651 -39 5 0 0 0 - - -;
#X floatatom 688 -39 5 0 0 0 - - -;
#X floatatom 726 -39 5 0 0 0 - - -;
#X obj 159 311 osc~;
#X obj 175 69 /;
#X floatatom 153 46 5 0 0 0 - - -;
#X floatatom 190 46 5 0 0 0 - - -;
#X obj 260 69 /;
#X floatatom 238 46 5 0 0 0 - - -;
#X floatatom 275 46 5 0 0 0 - - -;
#X obj 349 71 /;
#X floatatom 328 47 5 0 0 0 - - -;
#X floatatom 365 47 5 0 0 0 - - -;
#X obj 160 93 *;
#X obj 334 95 *;
#X obj 245 93 *;
#X obj 256 383 +~;
#X obj 199 311 osc~;
#X obj 238 310 osc~;
#X obj 276 310 osc~;
#X obj 563 -64 del 100;
#X obj 174 235 tgl 15 0 empty empty empty 17 7 0 10 -262144 -1 -1 0
1;
#X obj 159 259 *;
#X obj 199 259 *;
#X obj 238 259 *;
#X obj 276 258 *;
#X obj 214 235 tgl 15 0 empty empty empty 17 7 0 10 -262144 -1 -1 0
1;
#X obj 253 235 tgl 15 0 empty empty empty 17 7 0 10 -262144 -1 -1 0
1;
#X obj 291 234 tgl 15 0 empty empty empty 17 7 0 10 -262144 -1 -1 1
1;
#X obj 591 47 loadbang;
#X obj 591 98 random 4;
#X obj 601 136 demux 0 1 2 3;
#X msg 530 103 1;
#X msg 530 129 0;
#X obj 591 71 metro;
#X obj 693 94 del;
#X floatatom 677 47 5 0 0 0 - - -;
#X connect 1 0 20 0;
#X connect 1 0 22 0;
#X connect 1 0 21 0;
#X connect 1 0 29 0;
#X connect 2 0 0 0;
#X connect 2 0 0 1;
#X connect 3 0 2 1;
#X connect 4 0 5 0;
#X connect 4 0 1 0;
#X connect 4 0 27 0;
#X connect 4 0 12 0;
#X connect 4 0 13 0;
#X connect 4 0 15 0;
#X connect 4 0 16 0;
#X connect 4 0 18 0;
#X connect 4 0 19 0;
#X connect 5 0 3 0;
#X connect 6 0 3 2;
#X connect 7 0 3 3;
#X connect 8 0 3 4;
#X connect 9 0 3 5;
#X connect 10 0 23 0;
#X connect 11 0 20 1;
#X connect 12 0 11 0;
#X connect 13 0 11 1;
#X connect 14 0 22 1;
#X connect 15 0 14 0;
#X connect 16 0 14 1;
#X connect 17 0 21 1;
#X connect 18 0 17 0;
#X connect 19 0 17 1;
#X connect 20 0 30 0;
#X connect 21 0 32 0;
#X connect 22 0 31 0;
#X connect 23 0 2 0;
#X connect 24 0 23 0;
#X connect 25 0 23 0;
#X connect 26 0 23 0;
#X connect 27 0 5 0;
#X connect 28 0 29 1;
#X connect 29 0 10 0;
#X connect 30 0 24 0;
#X connect 31 0 25 0;
#X connect 32 0 26 0;
#X connect 33 0 30 1;
#X connect 34 0 31 1;
#X connect 35 0 32 1;
#X connect 36 0 41 0;
#X connect 37 0 38 1;
#X connect 38 0 28 0;
#X connect 38 1 33 0;
#X connect 38 2 34 0;
#X connect 38 3 35 0;
#X connect 39 0 38 0;
#X connect 40 0 28 0;
#X connect 40 0 33 0;
#X connect 40 0 34 0;
#X connect 40 0 35 0;
#X connect 41 0 37 0;
#X connect 41 0 39 0;
#X connect 41 0 42 0;
#X connect 41 0 4 0;
#X connect 42 0 40 0;
#X connect 43 0 41 1;
#X connect 43 0 42 1;
