#N canvas 0 22 840 1002 10;
#X declare -lib mrpeach;
#X obj 268 532 output~;
#X floatatom 107 125 5 0 0 0 FUNDAMENTAL - -;
#X obj 293 496 *~;
#X obj 583 95 adsr 1 100 200 50 300;
#X obj 583 -22 bng 30 250 50 0 empty empty empty 17 7 0 10 -4034 -1
-1;
#X obj 583 70 tgl 15 0 empty empty empty 17 7 0 10 -262144 -1 -1 0
1;
#X floatatom 632 70 5 0 0 0 - - -;
#X floatatom 671 70 5 0 0 0 - - -;
#X floatatom 708 70 5 0 0 0 - - -;
#X floatatom 746 70 5 0 0 0 - - -;
#X obj 179 390 osc~;
#X obj 195 148 /;
#X floatatom 173 125 5 0 0 0 - - -;
#X floatatom 210 125 5 0 0 0 - - -;
#X obj 280 148 /;
#X floatatom 258 125 5 0 0 0 - - -;
#X floatatom 295 125 5 0 0 0 - - -;
#X obj 369 150 /;
#X floatatom 348 126 5 0 0 0 - - -;
#X floatatom 385 126 5 0 0 0 - - -;
#X obj 180 172 *;
#X obj 354 174 *;
#X obj 265 172 *;
#X obj 276 462 +~;
#X obj 219 390 osc~;
#X obj 258 389 osc~;
#X obj 296 389 osc~;
#X obj 583 15 del 100;
#X obj 194 314 tgl 20 0 empty empty empty 17 7 0 10 -262144 -1 -1 0
1;
#X obj 179 338 *;
#X obj 219 338 *;
#X obj 258 338 *;
#X obj 296 337 *;
#X obj 234 314 tgl 20 0 empty empty empty 17 7 0 10 -262144 -1 -1 0
1;
#X obj 273 314 tgl 20 0 empty empty empty 17 7 0 10 -262144 -1 -1 0
1;
#X obj 311 313 tgl 20 0 empty empty empty 17 7 0 10 -262144 -1 -1 0
1;
#X obj 693 -118 import mrpeach;
#X obj 583 -93 unpackOSC;
#X obj 583 -69 routeOSC /bang /fund /h1 /h2 /h3 /x;
#X msg 583 41 0;
#X obj 583 -117 udpreceive 44002;
#X connect 1 0 20 0;
#X connect 1 0 22 0;
#X connect 1 0 21 0;
#X connect 1 0 29 0;
#X connect 2 0 0 0;
#X connect 2 0 0 1;
#X connect 3 0 2 1;
#X connect 4 0 5 0;
#X connect 4 0 1 0;
#X connect 4 0 27 0;
#X connect 4 0 12 0;
#X connect 4 0 13 0;
#X connect 4 0 15 0;
#X connect 4 0 16 0;
#X connect 4 0 18 0;
#X connect 4 0 19 0;
#X connect 5 0 3 0;
#X connect 6 0 3 2;
#X connect 7 0 3 3;
#X connect 8 0 3 4;
#X connect 9 0 3 5;
#X connect 10 0 23 0;
#X connect 11 0 20 1;
#X connect 12 0 11 0;
#X connect 13 0 11 1;
#X connect 14 0 22 1;
#X connect 15 0 14 0;
#X connect 16 0 14 1;
#X connect 17 0 21 1;
#X connect 18 0 17 0;
#X connect 19 0 17 1;
#X connect 20 0 30 0;
#X connect 21 0 32 0;
#X connect 22 0 31 0;
#X connect 23 0 2 0;
#X connect 24 0 23 0;
#X connect 25 0 23 0;
#X connect 26 0 23 0;
#X connect 27 0 39 0;
#X connect 28 0 29 1;
#X connect 29 0 10 0;
#X connect 30 0 24 0;
#X connect 31 0 25 0;
#X connect 32 0 26 0;
#X connect 33 0 30 1;
#X connect 34 0 31 1;
#X connect 35 0 32 1;
#X connect 37 0 38 0;
#X connect 38 0 4 0;
#X connect 38 1 28 0;
#X connect 38 2 33 0;
#X connect 38 3 34 0;
#X connect 38 4 35 0;
#X connect 38 5 5 0;
#X connect 39 0 5 0;
#X connect 40 0 37 0;
