#N canvas -960 22 960 1036 10;
#X declare -lib mrpeach;
#X obj 272 616 output~;
#X floatatom 104 217 5 0 0 0 FUNDAMENTAL - -;
#X obj 290 588 *~;
#X obj 752 145 adsr 1 100 200 50 300;
#X obj 752 25 bng 30 250 50 0 empty empty empty 17 7 0 10 -4034 -1
-1;
#X obj 752 120 tgl 15 0 empty empty empty 17 7 0 10 -262144 -1 -1 0
1;
#X floatatom 801 120 5 0 0 0 - - -;
#X floatatom 840 120 5 0 0 0 - - -;
#X floatatom 877 120 5 0 0 0 - - -;
#X floatatom 915 120 5 0 0 0 - - -;
#X obj 176 482 osc~;
#X obj 163 229 /;
#X floatatom 141 206 5 0 0 0 - - -;
#X floatatom 178 206 5 0 0 0 - - -;
#X obj 238 240 /;
#X floatatom 216 217 5 0 0 0 - - -;
#X floatatom 253 217 5 0 0 0 - - -;
#X obj 312 231 /;
#X floatatom 291 207 5 0 0 0 - - -;
#X floatatom 328 207 5 0 0 0 - - -;
#X obj 148 253 *;
#X obj 297 255 *;
#X obj 223 264 *;
#X obj 273 554 +~;
#X obj 216 482 osc~;
#X obj 255 481 osc~;
#X obj 293 481 osc~;
#X obj 752 65 del 100;
#X obj 191 406 tgl 20 0 empty empty empty 17 7 0 10 -262144 -1 -1 0
1;
#X obj 176 430 *;
#X obj 216 430 *;
#X obj 255 430 *;
#X obj 293 429 *;
#X obj 231 406 tgl 20 0 empty empty empty 17 7 0 10 -262144 -1 -1 0
1;
#X obj 270 406 tgl 20 0 empty empty empty 17 7 0 10 -262144 -1 -1 0
1;
#X obj 308 405 tgl 20 0 empty empty empty 17 7 0 10 -262144 -1 -1 0
1;
#X obj 862 -98 import mrpeach;
#X obj 752 -74 unpackOSC;
#X obj 752 -98 udpreceive 44001;
#X msg 752 91 0;
#X obj 388 241 /;
#X floatatom 367 217 5 0 0 0 - - -;
#X floatatom 404 217 5 0 0 0 - - -;
#X obj 373 265 *;
#X obj 328 481 osc~;
#X obj 328 429 *;
#X obj 343 405 tgl 20 0 empty empty empty 17 7 0 10 -262144 -1 -1 0
1;
#X obj 463 231 /;
#X floatatom 442 207 5 0 0 0 - - -;
#X floatatom 479 207 5 0 0 0 - - -;
#X obj 448 255 *;
#X obj 363 481 osc~;
#X obj 363 429 *;
#X obj 378 405 tgl 20 0 empty empty empty 17 7 0 10 -262144 -1 -1 0
1;
#X obj 538 241 /;
#X floatatom 517 217 5 0 0 0 - - -;
#X floatatom 554 217 5 0 0 0 - - -;
#X obj 523 265 *;
#X obj 398 481 osc~;
#X obj 398 429 *;
#X obj 413 405 tgl 20 0 empty empty empty 17 7 0 10 -262144 -1 -1 0
1;
#X obj 752 -48 routeOSC /bang /fund /h1 /h2 /h3 /h4 /h5 /h6 /x;
#X obj 753 -19 routeOSC /f /1/1 /1/2 /2/1 /2/2 /3/1 /3/2 /4/1 /4/2
/5/1 /5/2 /6/1 /6/2;
#X connect 1 0 20 0;
#X connect 1 0 22 0;
#X connect 1 0 21 0;
#X connect 1 0 29 0;
#X connect 2 0 0 0;
#X connect 2 0 0 1;
#X connect 3 0 2 1;
#X connect 4 0 5 0;
#X connect 4 0 1 0;
#X connect 4 0 27 0;
#X connect 4 0 12 0;
#X connect 4 0 13 0;
#X connect 4 0 15 0;
#X connect 4 0 16 0;
#X connect 4 0 18 0;
#X connect 4 0 19 0;
#X connect 4 0 41 0;
#X connect 4 0 42 0;
#X connect 4 0 48 0;
#X connect 4 0 49 0;
#X connect 4 0 55 0;
#X connect 4 0 56 0;
#X connect 5 0 3 0;
#X connect 6 0 3 2;
#X connect 7 0 3 3;
#X connect 8 0 3 4;
#X connect 9 0 3 5;
#X connect 10 0 23 0;
#X connect 11 0 20 1;
#X connect 12 0 11 0;
#X connect 13 0 11 1;
#X connect 14 0 22 1;
#X connect 15 0 14 0;
#X connect 16 0 14 1;
#X connect 17 0 21 1;
#X connect 18 0 17 0;
#X connect 19 0 17 1;
#X connect 20 0 30 0;
#X connect 21 0 32 0;
#X connect 22 0 31 0;
#X connect 23 0 2 0;
#X connect 24 0 23 0;
#X connect 25 0 23 0;
#X connect 26 0 23 0;
#X connect 27 0 39 0;
#X connect 28 0 29 1;
#X connect 29 0 10 0;
#X connect 30 0 24 0;
#X connect 31 0 25 0;
#X connect 32 0 26 0;
#X connect 33 0 30 1;
#X connect 34 0 31 1;
#X connect 35 0 32 1;
#X connect 37 0 61 0;
#X connect 38 0 37 0;
#X connect 39 0 5 0;
#X connect 40 0 43 1;
#X connect 41 0 40 0;
#X connect 42 0 40 1;
#X connect 43 0 45 0;
#X connect 44 0 23 0;
#X connect 45 0 44 0;
#X connect 46 0 45 1;
#X connect 47 0 50 1;
#X connect 48 0 47 0;
#X connect 49 0 47 1;
#X connect 50 0 52 0;
#X connect 51 0 23 0;
#X connect 52 0 51 0;
#X connect 53 0 52 1;
#X connect 54 0 57 1;
#X connect 55 0 54 0;
#X connect 56 0 54 1;
#X connect 57 0 59 0;
#X connect 58 0 23 0;
#X connect 59 0 58 0;
#X connect 60 0 59 1;
#X connect 61 0 4 0;
#X connect 61 1 28 0;
#X connect 61 2 33 0;
#X connect 61 3 34 0;
#X connect 61 4 35 0;
#X connect 61 5 46 0;
#X connect 61 6 53 0;
#X connect 61 7 60 0;
#X connect 61 8 5 0;
#X connect 61 9 62 0;
#X connect 62 0 1 0;
#X connect 62 1 12 0;
#X connect 62 2 13 0;
#X connect 62 3 15 0;
#X connect 62 4 16 0;
#X connect 62 5 18 0;
#X connect 62 6 19 0;
#X connect 62 7 41 0;
#X connect 62 8 42 0;
#X connect 62 9 48 0;
#X connect 62 10 49 0;
#X connect 62 11 55 0;
#X connect 62 12 56 0;
